<?xml version="1.0" encoding="UTF-8"?>
<svg version="1.1" xmlns="http://www.w3.org/2000/svg" width="1024" height="1024">
<path d="M0 0 C1.82654871 2.61068887 3.52083972 5.2260031 5.1875 7.9375 C5.70779785 8.77200684 6.2280957 9.60651367 6.76416016 10.46630859 C11.85819015 18.6769329 16.8178529 26.97047534 21.74682617 35.28100586 C24.96227258 40.68669017 28.25462454 45.98681722 31.84033203 51.15576172 C33 53 33 53 34 56 C34.86423852 57.74439206 35.75477839 59.47582013 36.66015625 61.19921875 C37.20220703 62.2344165 37.74425781 63.26961426 38.30273438 64.33618164 C38.88345703 65.4421167 39.46417969 66.54805176 40.0625 67.6875 C41.26223427 69.99191918 42.46145488 72.29660586 43.66015625 74.6015625 C45.48504429 78.10538809 47.31811196 81.60358295 49.18359375 85.0859375 C71.19296975 127.21140985 86.74120069 176.3845479 88 224 C88.03996094 225.03898438 88.07992188 226.07796875 88.12109375 227.1484375 C89.0114575 268.73366188 73.84056653 308.77077684 45.14428711 338.81494141 C43.44382894 340.55833925 41.72845054 342.28437941 40 344 C39.51144531 344.48581543 39.02289062 344.97163086 38.51953125 345.47216797 C31.63678107 352.22237219 24.08796664 357.80412138 16 363 C15.43764648 363.3702832 14.87529297 363.74056641 14.29589844 364.12207031 C2.4799526 371.82927447 -10.34919171 377.38950671 -23.18795776 383.12983704 C-32.23599191 387.17718503 -41.20191172 391.37196583 -50.125 395.6875 C-50.73178589 395.97959351 -51.33857178 396.27168701 -51.96374512 396.57263184 C-59.68043517 400.27667728 -59.68043517 400.27667728 -67.1796875 404.39453125 C-70 406 -70 406 -72 406 C-66.97797837 420.50722622 -61.57858795 434.76353303 -55.45581055 448.84521484 C-54.77965698 450.4048999 -54.77965698 450.4048999 -54.08984375 451.99609375 C-53.48450806 453.37559204 -53.48450806 453.37559204 -52.86694336 454.78295898 C-52 457 -52 457 -52 459 C-51.34 459.33 -50.68 459.66 -50 460 C-49.30444967 461.99013924 -48.64803098 463.99388428 -48 466 C-47.25621009 467.81105729 -46.49525697 469.61510723 -45.72265625 471.4140625 C-45.29146484 472.42339844 -44.86027344 473.43273437 -44.41601562 474.47265625 C-43.52277399 476.55301988 -42.62443765 478.63120434 -41.72070312 480.70703125 C-34.77316724 497.04564767 -31.48903774 513.68528119 -37 531 C-41.48016973 540.87871221 -49.00197137 548.00018376 -58.875 552.4375 C-68.74563134 555.89222097 -78.23172923 555.66637509 -88 552 C-91.52099505 550.26260612 -94.91886873 548.4471817 -98 546 C-98 545.34 -98 544.68 -98 544 C-98.99 543.67 -99.98 543.34 -101 543 C-128.80954539 512.0930234 -124.41644475 453.61892703 -122.6875 415.06640625 C-119.92714081 365.02536894 -108.86274236 317.8926702 -72 282 C-71.53851563 281.505 -71.07703125 281.01 -70.6015625 280.5 C-63.51118721 273.02916555 -55.00845997 267.08453963 -46.60083008 261.19360352 C-22.43700286 244.22119519 -10.32393261 222.31785529 -4.62109375 193.578125 C-1.11035861 173.3527578 2.60193522 148.80580567 -4 129 C-4.99 129.66 -5.98 130.32 -7 131 C-7.33 130.34 -7.66 129.68 -8 129 C-7.34 129 -6.68 129 -6 129 C-6 128.34 -6 127.68 -6 127 C-12.52841967 130.36181079 -13.83174678 135.30611385 -16 142 C-19.27727765 152.68968471 -22.12903237 163.5042526 -24.86328125 174.34375 C-25.32178467 176.1525061 -25.32178467 176.1525061 -25.78955078 177.99780273 C-26.37399014 180.3179221 -26.94965527 182.64027521 -27.51513672 184.96508789 C-31.14952733 199.45768654 -31.14952733 199.45768654 -36.3125 204.0625 C-40.02353948 205.35704866 -42.23011598 205.07710972 -46 204 C-50.06146621 200.84108183 -52.06309112 198.05930794 -53 193 C-52.86627045 184.18940807 -50.6712982 175.82537912 -48.47265625 167.34765625 C-48.11928087 165.95745096 -47.76679516 164.56701925 -47.41514587 163.17637634 C-46.49409524 159.5411596 -45.56396822 155.90833784 -44.63092041 152.27618408 C-43.13996801 146.46974657 -41.65903141 140.66079064 -40.18572807 134.84985161 C-39.67508371 132.84379838 -39.15807694 130.83946733 -38.64039612 128.83522034 C-34.1298892 113.43309979 -34.1298892 113.43309979 -36 98 C-36.66 97.34 -37.32 96.68 -38 96 C-40.46650198 95.94154191 -40.46650198 95.94154191 -43 97 C-58.97308667 114.4015741 -65.52550306 145.6322885 -72.9453125 167.66015625 C-73.17156815 168.32917969 -73.39782379 168.99820313 -73.63093567 169.6875 C-74.67750524 172.78729624 -75.70915171 175.89064046 -76.71655273 179.00341797 C-78.96060246 185.74702401 -81.17363034 191.83334925 -86.8125 196.5 C-90.34627369 197.3077197 -93.51996755 196.95951512 -97 196 C-100.37731719 193.86695757 -101.27606367 191.62601514 -102.22167969 187.8894043 C-103.26624199 182.86268459 -102.55125353 179.11932434 -101.078125 174.26953125 C-100.84804749 173.45837357 -100.61796997 172.64721588 -100.38092041 171.81147766 C-97.53152717 161.98767841 -94.14143688 152.33419547 -90.75 142.6875 C-89.79186874 139.95353869 -88.835953 137.21887794 -87.88580322 134.48213196 C-87.30188867 132.80091153 -86.71342856 131.12126016 -86.11956787 129.44352722 C-84.67940672 125.30387402 -83.5604998 121.37093806 -83 117 C-83.99 116.34 -84.98 115.68 -86 115 C-86 114.34 -86 113.68 -86 113 C-91.70030103 115.82898603 -94.92431643 118.71223104 -98.5 123.9375 C-98.99846436 124.65695801 -99.49692871 125.37641602 -100.01049805 126.11767578 C-122.72062033 160.09421569 -135.50861277 199.20140384 -135.3125 240.125 C-135.31034485 240.93803589 -135.3081897 241.75107178 -135.30596924 242.58874512 C-135.25214422 255.27340376 -134.68746028 267.56377173 -132 280 C-131.78005371 281.0204541 -131.56010742 282.0409082 -131.33349609 283.09228516 C-129.23556073 292.60827234 -127.11585582 302.03006301 -123.74609375 311.18359375 C-121.8990244 316.62110823 -121.80456226 320.44622061 -123 326 C-123.30234788 327.72368427 -123.60304464 329.44765873 -123.90234375 331.171875 C-124.24727357 333.03127269 -124.59233054 334.89064679 -124.9375 336.75 C-126.35314764 344.62501996 -127.50121381 352.4704722 -128.25 360.4375 C-128.32984131 361.2821582 -128.40968262 362.12681641 -128.49194336 362.99707031 C-128.9269899 368.01645125 -129.0694055 372.96231746 -129 378 C-162.91856949 363.09935676 -192.17422773 332.66308655 -205.71069336 298.25048828 C-206.49517272 296.17408073 -207.25320466 294.09023144 -208 292 C-208.23944336 291.34322266 -208.47888672 290.68644531 -208.72558594 290.00976562 C-221.64983438 253.97961392 -217.66773573 214.65291492 -202.03173828 180.17675781 C-191.76091653 158.50741405 -177.3741832 139.32681453 -161.3671875 121.578125 C-159.90637808 119.94466292 -159.90637808 119.94466292 -158.4453125 117.796875 C-157.72988281 116.90742188 -157.72988281 116.90742188 -157 116 C-156.34 116 -155.68 116 -155 116 C-154.74041504 115.41516846 -154.48083008 114.83033691 -154.21337891 114.2277832 C-152.91356092 111.84129646 -151.51043278 110.26697789 -149.5859375 108.35546875 C-148.90660156 107.67806641 -148.22726562 107.00066406 -147.52734375 106.30273438 C-146.81707031 105.60470703 -146.10679687 104.90667969 -145.375 104.1875 C-144.68792969 103.50107422 -144.00085938 102.81464844 -143.29296875 102.10742188 C-138.68850894 97.54183649 -133.92637775 93.21441758 -129 89 C-128.4652002 88.53811279 -127.93040039 88.07622559 -127.37939453 87.6003418 C-109.57008793 72.24937506 -90.82536851 57.78832708 -71.3359375 44.63671875 C-68.95007514 43.06563738 -68.95007514 43.06563738 -67 41 C-65.09849901 39.86991633 -63.17917603 38.76966218 -61.25 37.6875 C-56.73375682 35.09444172 -52.90322956 32.41532587 -49 29 C-47.67078608 28.32515736 -46.33676347 27.65976181 -45 27 C-43.21044282 25.8932063 -41.43440639 24.76442452 -39.66796875 23.62109375 C-38.62850098 22.95094238 -37.5890332 22.28079102 -36.51806641 21.59033203 C-35.41897949 20.87989746 -34.31989258 20.16946289 -33.1875 19.4375 C-24.772407 14.01581523 -16.31768917 8.68856833 -7.6953125 3.6015625 C-1.63414634 0 -1.63414634 0 0 0 Z " fill="#58A511" transform="translate(569,204)"/>
<path d="M0 0 C0.99 0.495 0.99 0.495 2 1 C1.50371094 1.53367187 1.00742187 2.06734375 0.49609375 2.6171875 C-24.81058062 30.37289488 -36.10951643 65.87534063 -35.140625 103.01416016 C-34.9135935 107.83463802 -34.39108106 112.59353325 -33.75 117.375 C-33.64075195 118.20410889 -33.53150391 119.03321777 -33.41894531 119.88745117 C-31.37375247 133.6898189 -27.30607786 146.71092958 -22.3125 159.6875 C-21.78454266 161.07948062 -21.25687712 162.47157194 -20.72949219 163.86376953 C-17.24745631 173.00306755 -13.56307302 182.04425236 -9.59106445 190.9831543 C-7 196.82137925 -7 196.82137925 -7 199 C-6.34 199.33 -5.68 199.66 -5 200 C-4.30444967 201.99013924 -3.64803098 203.99388428 -3 206 C-2.25621009 207.81105729 -1.49525697 209.61510723 -0.72265625 211.4140625 C-0.29146484 212.42339844 0.13972656 213.43273437 0.58398438 214.47265625 C1.47722601 216.55301988 2.37556235 218.63120434 3.27929688 220.70703125 C10.22683276 237.04564767 13.51096226 253.68528119 8 271 C3.51983027 280.87871221 -4.00197137 288.00018376 -13.875 292.4375 C-23.74563134 295.89222097 -33.23172923 295.66637509 -43 292 C-46.52099505 290.26260612 -49.91886873 288.4471817 -53 286 C-53 285.34 -53 284.68 -53 284 C-53.99 283.67 -54.98 283.34 -56 283 C-83.80954539 252.0930234 -79.41644475 193.61892703 -77.6875 155.06640625 C-74.92714081 105.02536894 -63.86274236 57.8926702 -27 22 C-26.53851563 21.505 -26.07703125 21.01 -25.6015625 20.5 C-18.08862876 12.58393323 -8.92414481 6.22614754 0 0 Z " fill="#FD8400" transform="translate(524,464)"/>
<path d="M0 0 C6.84725159 6.84725159 5.00863247 29.92503946 5.1875 39.25 C4.64640372 83.18701771 -11.91536201 122.14609715 -43 153 C-43.48855469 153.48581543 -43.97710938 153.97163086 -44.48046875 154.47216797 C-51.36321893 161.22237219 -58.91203336 166.80412138 -67 172 C-67.56235352 172.3702832 -68.12470703 172.74056641 -68.70410156 173.12207031 C-80.5200474 180.82927447 -93.34919171 186.38950671 -106.18795776 192.12983704 C-115.23599191 196.17718503 -124.20191172 200.37196583 -133.125 204.6875 C-133.73178589 204.97959351 -134.33857178 205.27168701 -134.96374512 205.57263184 C-142.65793233 209.26157846 -142.65793233 209.26157846 -150.1171875 213.39453125 C-153 215 -153 215 -156 215 C-162.33008899 193.39780311 -162.33008899 193.39780311 -162 183 C-159.90882777 186.57842834 -159.25976283 190.13680795 -158.5 194.1875 C-157.42470944 199.81551472 -156.27412293 205.41346102 -155 211 C-151.92102465 211 -150.91828098 210.62897563 -148.27734375 209.25 C-147.57416016 208.8890625 -146.87097656 208.528125 -146.14648438 208.15625 C-145.41751953 207.7746875 -144.68855469 207.393125 -143.9375 207 C-136.25506757 203 -136.25506757 203 -134 203 C-133.67 202.34 -133.34 201.68 -133 201 C-130.35394539 199.57897067 -127.71927431 198.26782886 -125 197 C-124.15695312 196.60554687 -123.31390625 196.21109375 -122.4453125 195.8046875 C-103.34080189 187 -103.34080189 187 -100 187 C-100 186.34 -100 185.68 -100 185 C-93.4595997 182.17865085 -93.4595997 182.17865085 -90.578125 181.05859375 C-87.07455313 179.62000591 -83.76152068 177.86538131 -80.40234375 176.12109375 C-78.2517551 175.11748571 -76.31589496 174.47601536 -74 174 C-74 173.34 -74 172.68 -74 172 C-73.21625 171.9175 -72.4325 171.835 -71.625 171.75 C-70.75875 171.5025 -69.8925 171.255 -69 171 C-68.3162955 169.67532254 -67.65035814 168.34136367 -67 167 C-64.5625 165.8125 -64.5625 165.8125 -62 165 C-61.01 164.67 -60.02 164.34 -59 164 C-58.67 163.01 -58.34 162.02 -58 161 C-56.67457258 160.31775051 -55.33925248 159.65469461 -54 159 C-52.1485104 157.44099609 -50.33924805 155.83117677 -48.5625 154.1875 C-47.63566406 153.33542969 -46.70882812 152.48335937 -45.75390625 151.60546875 C-34.92769052 141.36279373 -22.82120824 129.46362471 -18 115 C-17.51917969 114.53980469 -17.03835938 114.07960938 -16.54296875 113.60546875 C-14.64316714 111.62871315 -14.10654261 109.92149713 -13.3125 107.3125 C-13.06113281 106.50425781 -12.80976562 105.69601562 -12.55078125 104.86328125 C-12.36902344 104.24839844 -12.18726563 103.63351562 -12 103 C-11.34 103 -10.68 103 -10 103 C-9.83177734 102.23623047 -9.83177734 102.23623047 -9.66015625 101.45703125 C-8.59190067 97.48109774 -7.14419214 93.61678901 -5.72851562 89.75195312 C-4.2025811 85.36099869 -3.76630639 81.63192715 -4 77 C-3.34 77 -2.68 77 -2 77 C1.77026246 54.97254238 2.91323155 34.8215601 0.4375 12.63671875 C-0.01402957 8.3992196 -0.07842511 4.25946374 0 0 Z " fill="#408011" transform="translate(652,395)"/>
<path d="M0 0 C1.82654871 2.61068887 3.52083972 5.2260031 5.1875 7.9375 C5.70779785 8.77200684 6.2280957 9.60651367 6.76416016 10.46630859 C11.85819015 18.6769329 16.8178529 26.97047534 21.74682617 35.28100586 C24.96227258 40.68669017 28.25462454 45.98681722 31.84033203 51.15576172 C33 53 33 53 34 56 C34.86423852 57.74439206 35.75477839 59.47582013 36.66015625 61.19921875 C37.20285156 62.23602783 37.74554687 63.27283691 38.3046875 64.34106445 C38.88476562 65.44538818 39.46484375 66.54971191 40.0625 67.6875 C57.7313442 101.52459318 57.7313442 101.52459318 60 109 C59.505 110.485 59.505 110.485 59 112 C58.64550781 111.23042969 58.29101562 110.46085937 57.92578125 109.66796875 C56.37568846 106.32382184 54.81430627 102.98534817 53.24560547 99.64990234 C52.36239918 97.77096838 51.48144149 95.89097669 50.60205078 94.01025391 C43.49921659 78.85707989 35.9696697 64.10512169 27.5390625 49.64746094 C26.05166709 47.08887657 24.58505922 44.51957436 23.125 41.9453125 C16.77377188 30.78569638 10.1048901 19.82422858 2.79638672 9.26025391 C0 5.20003291 0 5.20003291 0 3 C-1.98 3.33 -3.96 3.66 -6 4 C-2.25 0 -2.25 0 0 0 Z " fill="#458B0F" transform="translate(569,204)"/>
<path d="M0 0 C2.09117223 3.57842834 2.74023717 7.13680795 3.5 11.1875 C4.57529056 16.81551472 5.72587707 22.41346102 7 28 C10.07897535 28 11.08171902 27.62897563 13.72265625 26.25 C14.42583984 25.8890625 15.12902344 25.528125 15.85351562 25.15625 C16.58248047 24.7746875 17.31144531 24.393125 18.0625 24 C25.74493243 20 25.74493243 20 28 20 C28.33 19.34 28.66 18.68 29 18 C31.64605461 16.57897067 34.28072569 15.26782886 37 14 C37.84304688 13.60554687 38.68609375 13.21109375 39.5546875 12.8046875 C42.35950779 11.51203119 45.17582458 10.24980022 48 9 C49.63388672 8.27490234 49.63388672 8.27490234 51.30078125 7.53515625 C52.37714844 7.06980469 53.45351563 6.60445312 54.5625 6.125 C56.04943359 5.47917969 56.04943359 5.47917969 57.56640625 4.8203125 C58.77103516 4.41425781 58.77103516 4.41425781 60 4 C60.66 4.33 61.32 4.66 62 5 C58.09550638 7.70962624 54.30551291 9.92292377 49.95703125 11.8828125 C48.23504517 12.66748901 48.23504517 12.66748901 46.47827148 13.46801758 C45.87925018 13.73869049 45.28022888 14.0093634 44.66305542 14.28823853 C34.46257267 18.90056783 24.40434158 23.68893888 14.59887695 29.10400391 C9.29642579 32 9.29642579 32 6 32 C-0.33008899 10.39780311 -0.33008899 10.39780311 0 0 Z " fill="#3F750F" transform="translate(490,578)"/>
<path d="M0 0 C2.87287608 1.43643804 2.99925267 3.20781213 4.125 6.1875 C11.57457535 24.55004976 23.68962422 40.38769133 38 54 C38.62390625 54.60714844 39.2478125 55.21429687 39.890625 55.83984375 C47.94585991 63.41560039 56.97125051 69.64976968 66 76 C65.01 76.495 65.01 76.495 64 77 C37.17598444 60.18418722 10.13365889 35.0168344 0 4 C0 2.68 0 1.36 0 0 Z " fill="#4B8D10" transform="translate(363,498)"/>
<path d="M0 0 C0 0.66 0 1.32 0 2 C-1.50390625 3.48046875 -1.50390625 3.48046875 -3.5625 5.1875 C-7.10996174 8.18677493 -10.36522872 11.33995132 -13.5546875 14.71484375 C-15 16 -15 16 -17 16 C-17.21269531 16.54140625 -17.42539062 17.0828125 -17.64453125 17.640625 C-19.490167 20.85320135 -22.0395709 23.20559409 -24.6875 25.75 C-29.35655853 30.31810591 -33.80890829 34.98249583 -38 40 C-38 36.28151944 -37.15593473 35.72513871 -34.6875 33.0625 C-32.79593671 31.00438397 -31.01759835 29.0247062 -29.39453125 26.74609375 C-28.93433594 26.16988281 -28.47414063 25.59367187 -28 25 C-27.34 25 -26.68 25 -26 25 C-25.74186523 24.41661865 -25.48373047 23.8332373 -25.21777344 23.23217773 C-23.90067625 20.81793964 -22.46360208 19.2202579 -20.515625 17.28515625 C-19.82726562 16.59873047 -19.13890625 15.91230469 -18.4296875 15.20507812 C-17.71039063 14.49802734 -16.99109375 13.79097656 -16.25 13.0625 C-15.54617188 12.35931641 -14.84234375 11.65613281 -14.1171875 10.93164062 C-3.09333997 0 -3.09333997 0 0 0 Z " fill="#4D9310" transform="translate(440,295)"/>
<path d="M0 0 C0.66 0.33 1.32 0.66 2 1 C1.49210937 1.82242187 0.98421875 2.64484375 0.4609375 3.4921875 C-1.34701626 6.42418741 -3.15143143 9.35828719 -4.95263672 12.29443359 C-5.8631725 13.77718486 -6.77699964 15.25791397 -7.69140625 16.73828125 C-12.84184627 25.16994155 -17.08171407 33.93759566 -21 43 C-22.08306258 39.77678069 -21.9847775 38.18736069 -20.55078125 35.12109375 C-20.20273437 34.37327637 -19.8546875 33.62545898 -19.49609375 32.85498047 C-19.10550781 32.05721191 -18.71492188 31.25944336 -18.3125 30.4375 C-17.91546875 29.61137207 -17.5184375 28.78524414 -17.109375 27.93408203 C-6.54710958 6.54710958 -6.54710958 6.54710958 0 0 Z " fill="#478D10" transform="translate(385,354)"/>
<path d="M0 0 C2.09117223 3.57842834 2.74023717 7.13680795 3.5 11.1875 C3.75856508 12.53135584 4.01767806 13.87510639 4.27734375 15.21875 C4.51582031 16.4665625 4.75429688 17.714375 5 19 C5.91479642 23.59290894 6.77744689 27.84078235 9 32 C8.01 32 7.02 32 6 32 C-0.33008899 10.39780311 -0.33008899 10.39780311 0 0 Z " fill="#1F760E" transform="translate(490,578)"/>
<path d="M0 0 C3.31622635 1.46304104 4.3941351 3.83388018 6.125 6.9375 C7.24224854 11.05556352 7.22722704 14.99920626 7.1875 19.25 C7.17847656 20.50425781 7.16945313 21.75851562 7.16015625 23.05078125 C7.14855469 24.00339844 7.13695312 24.95601563 7.125 25.9375 C4.71286955 22.31930432 4.49297179 19.14489382 4.0625 14.9375 C3.49473693 9.36126518 3.49473693 9.36126518 2.125 3.9375 C1.135 4.5975 0.145 5.2575 -0.875 5.9375 C-1.205 5.2775 -1.535 4.6175 -1.875 3.9375 C-1.215 3.9375 -0.555 3.9375 0.125 3.9375 C0.125 3.2775 0.125 2.6175 0.125 1.9375 C-1.195 1.6075 -2.515 1.2775 -3.875 0.9375 C-1.875 -0.0625 -1.875 -0.0625 0 0 Z " fill="#488E0F" transform="translate(562.875,329.0625)"/>
<path d="M0 0 C0.33 0 0.66 0 1 0 C1.33 5.94 1.66 11.88 2 18 C2.99 17.01 3.98 16.02 5 15 C4.44271087 18.34373475 3.64826111 21.03312999 2 24 C1.34 24 0.68 24 0 24 C-1.19696162 16.36936964 -2.47060703 7.41182109 0 0 Z " fill="#379A11" transform="translate(489,554)"/>
<path d="M0 0 C0.66 0.33 1.32 0.66 2 1 C-16.13333333 16 -16.13333333 16 -19 16 C-19 15.34 -19 14.68 -19 14 C-17.25585938 12.48779297 -17.25585938 12.48779297 -14.84375 10.7421875 C-13.98652344 10.11699219 -13.12929688 9.49179687 -12.24609375 8.84765625 C-11.33988281 8.19667969 -10.43367188 7.54570312 -9.5 6.875 C-8.59378906 6.21628906 -7.68757813 5.55757813 -6.75390625 4.87890625 C-4.50674387 3.24675674 -2.25535528 1.62079984 0 0 Z " fill="#4B920F" transform="translate(478,263)"/>
<path d="M0 0 C2 2 4 4 6 6 C9.83300079 6.43556827 11.51770335 6.32883862 14.75 4.125 C16.18528848 2.76944977 17.6040112 1.3959888 19 0 C18.45440934 3.81913463 17.0538034 5.66946583 14 8 C9.64294216 9.2909801 7.74964856 9.3609419 3.625 7.375 C0.80266401 4.82145791 0.20709218 3.72765925 0 0 Z " fill="#488D0D" transform="translate(518,400)"/>
<path d="M0 0 C0.66 0.33 1.32 0.66 2 1 C0.70910257 2.4590143 -0.58274439 3.91718851 -1.875 5.375 C-2.59429688 6.18710937 -3.31359375 6.99921875 -4.0546875 7.8359375 C-5.33295938 9.25795079 -6.64794586 10.64794586 -8 12 C-8.99 10.68 -9.98 9.36 -11 8 C-7.37 5.36 -3.74 2.72 0 0 Z " fill="#E48603" transform="translate(524,464)"/>
<path d="M0 0 C0.61875 0.804375 1.2375 1.60875 1.875 2.4375 C3.74164041 5.03874519 3.74164041 5.03874519 6 6 C9.67329964 6.13357453 12.49852959 6.1671568 16 5 C16 5.66 16 6.32 16 7 C12.63254017 9.38528405 9.80795741 9.16170966 5.90625 8.54296875 C3.0323938 7.72439086 1.67121861 6.4371938 0 4 C0 2.68 0 1.36 0 0 Z " fill="#498F10" transform="translate(468,392)"/>
<path d="M0 0 C0.99 0.66 1.98 1.32 3 2 C1.2758698 3.29838176 -0.45453232 4.58843747 -2.1875 5.875 C-3.63189453 6.95394531 -3.63189453 6.95394531 -5.10546875 8.0546875 C-7.71128675 9.80596599 -10.04792144 10.97459794 -13 12 C-10.24563488 9.07870366 -7.5544617 6.60177656 -4.25 4.3125 C-0.99364953 2.37854636 -0.99364953 2.37854636 0 0 Z " fill="#4A910F" transform="translate(501,245)"/>
<path d="M0 0 C-2.12114959 1.50571746 -4.24653615 3.00468679 -6.375 4.5 C-6.97828125 4.92925781 -7.5815625 5.35851562 -8.203125 5.80078125 C-12.7734375 9 -12.7734375 9 -15 9 C-13.70077005 5.10231014 -12.05324838 4.42752259 -8.625 2.25 C-7.64789062 1.61578125 -6.67078125 0.9815625 -5.6640625 0.328125 C-3 -1 -3 -1 0 0 Z " fill="#4D940F" transform="translate(521,236)"/>
<path d="M0 0 C0.66 0.33 1.32 0.66 2 1 C0.58791833 2.60820412 -0.82986036 4.21140708 -2.25 5.8125 C-3.03890625 6.70582031 -3.8278125 7.59914063 -4.640625 8.51953125 C-6.65879445 10.64128225 -8.59916705 12.34254423 -11 14 C-9.42219077 10.28954753 -7.09296752 7.70093616 -4.375 4.75 C-3.55773437 3.85796875 -2.74046875 2.9659375 -1.8984375 2.046875 C-1.27195312 1.37140625 -0.64546875 0.6959375 0 0 Z " fill="#4A8F0D" transform="translate(546,444)"/>
<path d="M0 0 C2.9882675 2.58323124 4.49429547 5.55535237 6.25 9.0625 C7.06210937 10.65771484 7.06210937 10.65771484 7.890625 12.28515625 C8.25671875 13.18105469 8.6228125 14.07695312 9 15 C8.67 15.66 8.34 16.32 8 17 C7.66226563 16.36191406 7.32453125 15.72382813 6.9765625 15.06640625 C6.53054688 14.24011719 6.08453125 13.41382813 5.625 12.5625 C4.96371094 11.32693359 4.96371094 11.32693359 4.2890625 10.06640625 C3.16581441 7.86533422 3.16581441 7.86533422 1 7 C0.59270772 4.67843403 0.25561323 2.3431213 0 0 Z " fill="#61B514" transform="translate(607,273)"/>
<path d="M0 0 C0.66 0.99 1.32 1.98 2 3 C1.71382813 3.56203125 1.42765625 4.1240625 1.1328125 4.703125 C-0.01415931 7.02870923 -1.07839794 9.37770201 -2.125 11.75 C-2.47820312 12.54921875 -2.83140625 13.3484375 -3.1953125 14.171875 C-3.46085937 14.77515625 -3.72640625 15.3784375 -4 16 C-5 14 -5 14 -4.00390625 10.7421875 C-3.53110016 9.4502948 -3.05028031 8.16131362 -2.5625 6.875 C-2.31951172 6.21628906 -2.07652344 5.55757812 -1.82617188 4.87890625 C-1.22421679 3.25008662 -0.61297588 1.62470425 0 0 Z " fill="#EC8304" transform="translate(462,537)"/>
<path d="M0 0 C0.99 0.33 1.98 0.66 3 1 C3.68132451 2.66072849 4.34742127 4.327767 5 6 C5.99 6.66 6.98 7.32 8 8 C9.1875 10.625 9.1875 10.625 10 13 C6.23924335 11.74641445 5.52350869 10.29326113 3.3125 7.0625 C2.68988281 6.16660156 2.06726563 5.27070312 1.42578125 4.34765625 C0 2 0 2 0 0 Z " fill="#F17C04" transform="translate(461,735)"/>
<path d="M0 0 C0.66 0 1.32 0 2 0 C0.42527704 4.46171506 -1.59377029 9.79688514 -6 12 C-4.43358249 7.69235185 -2.31663844 3.93828536 0 0 Z " fill="#498E0F" transform="translate(554,431)"/>
<path d="M0 0 C2.90703436 1.2332873 3.65606908 3.13245971 5.0625 5.875 C4.0725 6.37 4.0725 6.37 3.0625 6.875 C2.7325 5.885 2.4025 4.895 2.0625 3.875 C1.0725 4.535 0.0825 5.195 -0.9375 5.875 C-1.2675 5.215 -1.5975 4.555 -1.9375 3.875 C-1.2775 3.875 -0.6175 3.875 0.0625 3.875 C0.0625 3.215 0.0625 2.555 0.0625 1.875 C-1.2575 1.545 -2.5775 1.215 -3.9375 0.875 C-1.9375 -0.125 -1.9375 -0.125 0 0 Z " fill="#509912" transform="translate(562.9375,329.125)"/>
<path d="M0 0 C1 2 1 2 0.3125 4.375 C-1.09398311 7.18796623 -2.67557877 8.9080209 -5 11 C-4.46884894 6.48521602 -2.63379708 3.65333143 0 0 Z " fill="#3FAB13" transform="translate(511,483)"/>
<path d="M0 0 C0.66 0.33 1.32 0.66 2 1 C-2.455 3.97 -2.455 3.97 -7 7 C-7.66 6.67 -8.32 6.34 -9 6 C-6.03 4.02 -3.06 2.04 0 0 Z " fill="#468A0F" transform="translate(559,209)"/>
<path d="M0 0 C0.66 0.33 1.32 0.66 2 1 C0.71372289 2.17260611 -0.57919783 3.3379283 -1.875 4.5 C-2.59429687 5.1496875 -3.31359375 5.799375 -4.0546875 6.46875 C-6 8 -6 8 -8 8 C-8 7.34 -8 6.68 -8 6 C-6.25 4.4921875 -6.25 4.4921875 -4 2.875 C-3.2575 2.33617187 -2.515 1.79734375 -1.75 1.2421875 C-1.1725 0.83226562 -0.595 0.42234375 0 0 Z " fill="#4A910D" transform="translate(456,280)"/>
<path d="M0 0 C0.66 0.33 1.32 0.66 2 1 C-1.17320782 4.53586014 -3.16743695 6.58578031 -8 7 C-5.42215154 4.35247996 -3.08351902 2.05567935 0 0 Z " fill="#D28B08" transform="translate(524,464)"/>
<path d="M0 0 C0.66 0.33 1.32 0.66 2 1 C-0.31 3.64 -2.62 6.28 -5 9 C-5 4.61031544 -2.87194899 3.23094261 0 0 Z " fill="#4B910F" transform="translate(399,336)"/>
<path d="M0 0 C1 4 1 4 1 4 Z " fill="#E98E0C" transform="translate(444,652)"/>
<path d="M0 0 C3 1 3 1 3 1 Z " fill="#92A618" transform="translate(433,581)"/>
<path d="M0 0 C2 1 2 1 2 1 Z " fill="#E68B0F" transform="translate(501,759)"/>
<path d="M0 0 C2 1 2 1 2 1 Z " fill="#E98810" transform="translate(482,757)"/>
<path d="" fill="#E8880D" transform="translate(0,0)"/>
<path d="" fill="#EA8A0B" transform="translate(0,0)"/>
<path d="" fill="#DA9B0F" transform="translate(0,0)"/>
<path d="" fill="#8EAA1A" transform="translate(0,0)"/>
<path d="" fill="#528E1E" transform="translate(0,0)"/>
<path d="" fill="#62A61D" transform="translate(0,0)"/>
<path d="" fill="#63A620" transform="translate(0,0)"/>
<path d="" fill="#67B21B" transform="translate(0,0)"/>
<path d="" fill="#65B01C" transform="translate(0,0)"/>
<path d="" fill="#64B01B" transform="translate(0,0)"/>
<path d="" fill="#5EA71F" transform="translate(0,0)"/>
<path d="" fill="#5FA61C" transform="translate(0,0)"/>
<path d="" fill="#64AD1A" transform="translate(0,0)"/>
<path d="" fill="#65AE18" transform="translate(0,0)"/>
<path d="M0 0 C2 1 2 1 2 1 Z " fill="#63AE1A" transform="translate(530,301)"/>
<path d="" fill="#60A81D" transform="translate(0,0)"/>
<path d="" fill="#62615E" transform="translate(0,0)"/>
<path d="" fill="#E8890F" transform="translate(0,0)"/>
<path d="" fill="#E68710" transform="translate(0,0)"/>
<path d="" fill="#E6880D" transform="translate(0,0)"/>
<path d="" fill="#E18A0A" transform="translate(0,0)"/>
<path d="" fill="#E98B0D" transform="translate(0,0)"/>
<path d="" fill="#E5880C" transform="translate(0,0)"/>
<path d="" fill="#E88D0A" transform="translate(0,0)"/>
<path d="" fill="#EC900C" transform="translate(0,0)"/>
<path d="" fill="#EB8F0E" transform="translate(0,0)"/>
<path d="" fill="#DA890C" transform="translate(0,0)"/>
<path d="" fill="#E7910B" transform="translate(0,0)"/>
<path d="" fill="#E4920E" transform="translate(0,0)"/>
<path d="" fill="#E09410" transform="translate(0,0)"/>
<path d="" fill="#5F861A" transform="translate(0,0)"/>
<path d="" fill="#9BA71A" transform="translate(0,0)"/>
<path d="" fill="#99A71A" transform="translate(0,0)"/>
<path d="" fill="#9CA71B" transform="translate(0,0)"/>
<path d="" fill="#8AA917" transform="translate(0,0)"/>
<path d="" fill="#D6990E" transform="translate(0,0)"/>
<path d="" fill="#51841A" transform="translate(0,0)"/>
<path d="" fill="#4F821B" transform="translate(0,0)"/>
<path d="" fill="#68A418" transform="translate(0,0)"/>
<path d="" fill="#4C801B" transform="translate(0,0)"/>
<path d="" fill="#66A61C" transform="translate(0,0)"/>
<path d="" fill="#96A91B" transform="translate(0,0)"/>
<path d="" fill="#64A61C" transform="translate(0,0)"/>
<path d="" fill="#CF9D0F" transform="translate(0,0)"/>
<path d="" fill="#C7A010" transform="translate(0,0)"/>
<path d="" fill="#CF9A0E" transform="translate(0,0)"/>
<path d="" fill="#8BAA1B" transform="translate(0,0)"/>
<path d="" fill="#61A41D" transform="translate(0,0)"/>
<path d="" fill="#64A61D" transform="translate(0,0)"/>
<path d="" fill="#8AAA1A" transform="translate(0,0)"/>
<path d="" fill="#64A41D" transform="translate(0,0)"/>
<path d="" fill="#83A61A" transform="translate(0,0)"/>
<path d="" fill="#62A11E" transform="translate(0,0)"/>
<path d="" fill="#D4A010" transform="translate(0,0)"/>
<path d="" fill="#D89B13" transform="translate(0,0)"/>
<path d="" fill="#77AD1F" transform="translate(0,0)"/>
<path d="" fill="#73AF1D" transform="translate(0,0)"/>
<path d="" fill="#D6A113" transform="translate(0,0)"/>
<path d="" fill="#4F881C" transform="translate(0,0)"/>
<path d="" fill="#D7A013" transform="translate(0,0)"/>
<path d="" fill="#D7A015" transform="translate(0,0)"/>
<path d="" fill="#4E871C" transform="translate(0,0)"/>
<path d="" fill="#6DAE1E" transform="translate(0,0)"/>
<path d="" fill="#6EAF1D" transform="translate(0,0)"/>
<path d="" fill="#6DAE1E" transform="translate(0,0)"/>
<path d="" fill="#CCA515" transform="translate(0,0)"/>
<path d="" fill="#6DAF1E" transform="translate(0,0)"/>
<path d="" fill="#6EB21E" transform="translate(0,0)"/>
<path d="" fill="#B3A719" transform="translate(0,0)"/>
<path d="" fill="#9DAA1A" transform="translate(0,0)"/>
<path d="" fill="#7DAF1C" transform="translate(0,0)"/>
<path d="" fill="#64A922" transform="translate(0,0)"/>
<path d="" fill="#63AA21" transform="translate(0,0)"/>
<path d="" fill="#67AC1C" transform="translate(0,0)"/>
<path d="" fill="#66AF1C" transform="translate(0,0)"/>
<path d="" fill="#64AB1F" transform="translate(0,0)"/>
<path d="" fill="#67AF1F" transform="translate(0,0)"/>
<path d="" fill="#6CB01F" transform="translate(0,0)"/>
<path d="" fill="#69B31E" transform="translate(0,0)"/>
<path d="" fill="#69B31E" transform="translate(0,0)"/>
<path d="" fill="#67AB1C" transform="translate(0,0)"/>
<path d="" fill="#66AD1D" transform="translate(0,0)"/>
<path d="" fill="#64AE1C" transform="translate(0,0)"/>
<path d="" fill="#65AD20" transform="translate(0,0)"/>
<path d="" fill="#5D9F1E" transform="translate(0,0)"/>
<path d="" fill="#65A91F" transform="translate(0,0)"/>
<path d="" fill="#67B11A" transform="translate(0,0)"/>
<path d="" fill="#68B21B" transform="translate(0,0)"/>
<path d="" fill="#66AF1E" transform="translate(0,0)"/>
<path d="" fill="#66B01D" transform="translate(0,0)"/>
<path d="" fill="#64B11C" transform="translate(0,0)"/>
<path d="" fill="#67AB1C" transform="translate(0,0)"/>
<path d="" fill="#65A91E" transform="translate(0,0)"/>
<path d="" fill="#69B220" transform="translate(0,0)"/>
<path d="" fill="#69AF1C" transform="translate(0,0)"/>
<path d="" fill="#64B01D" transform="translate(0,0)"/>
<path d="" fill="#64B11C" transform="translate(0,0)"/>
<path d="" fill="#68B31A" transform="translate(0,0)"/>
<path d="" fill="#68B21F" transform="translate(0,0)"/>
<path d="" fill="#66B11D" transform="translate(0,0)"/>
<path d="" fill="#69AF1C" transform="translate(0,0)"/>
<path d="" fill="#68B21D" transform="translate(0,0)"/>
<path d="" fill="#65B01C" transform="translate(0,0)"/>
<path d="" fill="#66B11C" transform="translate(0,0)"/>
<path d="" fill="#64AE1B" transform="translate(0,0)"/>
<path d="" fill="#64B11B" transform="translate(0,0)"/>
<path d="" fill="#64AF1B" transform="translate(0,0)"/>
<path d="" fill="#67AF1B" transform="translate(0,0)"/>
<path d="" fill="#62A91C" transform="translate(0,0)"/>
<path d="" fill="#66B11C" transform="translate(0,0)"/>
<path d="" fill="#64AF1A" transform="translate(0,0)"/>
<path d="" fill="#65B01A" transform="translate(0,0)"/>
<path d="" fill="#64AF1C" transform="translate(0,0)"/>
<path d="" fill="#64AF1C" transform="translate(0,0)"/>
<path d="" fill="#65AE1A" transform="translate(0,0)"/>
<path d="" fill="#65B219" transform="translate(0,0)"/>
<path d="" fill="#63B21B" transform="translate(0,0)"/>
<path d="" fill="#66B11C" transform="translate(0,0)"/>
<path d="" fill="#65B01A" transform="translate(0,0)"/>
<path d="" fill="#63AF19" transform="translate(0,0)"/>
<path d="" fill="#5FA51C" transform="translate(0,0)"/>
<path d="" fill="#65AF1A" transform="translate(0,0)"/>
<path d="" fill="#62AD1D" transform="translate(0,0)"/>
<path d="" fill="#63AC1C" transform="translate(0,0)"/>
<path d="" fill="#63AB1A" transform="translate(0,0)"/>
<path d="" fill="#61AD17" transform="translate(0,0)"/>
<path d="" fill="#65AD1C" transform="translate(0,0)"/>
<path d="" fill="#67AD1C" transform="translate(0,0)"/>
<path d="" fill="#62A91C" transform="translate(0,0)"/>
<path d="" fill="#63AB1B" transform="translate(0,0)"/>
<path d="" fill="#60AB1B" transform="translate(0,0)"/>
<path d="" fill="#66AF1B" transform="translate(0,0)"/>
<path d="" fill="#68AD1B" transform="translate(0,0)"/>
<path d="" fill="#62A91E" transform="translate(0,0)"/>
<path d="" fill="#64AB1C" transform="translate(0,0)"/>
<path d="" fill="#64AA19" transform="translate(0,0)"/>
<path d="" fill="#67A91F" transform="translate(0,0)"/>
<path d="" fill="#65AC1B" transform="translate(0,0)"/>
<path d="" fill="#63AD1B" transform="translate(0,0)"/>
<path d="" fill="#63AA1B" transform="translate(0,0)"/>
<path d="" fill="#5FA51E" transform="translate(0,0)"/>
<path d="" fill="#67A71F" transform="translate(0,0)"/>
<path d="" fill="#63AA1D" transform="translate(0,0)"/>
<path d="" fill="#64AA19" transform="translate(0,0)"/>
<path d="" fill="#63A91D" transform="translate(0,0)"/>
<path d="" fill="#62A91D" transform="translate(0,0)"/>
<path d="" fill="#5DA51C" transform="translate(0,0)"/>
<path d="" fill="#60A41D" transform="translate(0,0)"/>
<path d="" fill="#4E514C" transform="translate(0,0)"/>
</svg>
