<?xml version="1.0" encoding="UTF-8"?>
<svg version="1.1" xmlns="http://www.w3.org/2000/svg" width="1424" height="523">
<path d="M0 0 C469.92 0 939.84 0 1424 0 C1424 172.59 1424 345.18 1424 523 C954.08 523 484.16 523 0 523 C0 350.41 0 177.82 0 0 Z " fill="#FDFDFD" transform="translate(0,0)"/>
<path d="M0 0 C4.34838988 7.99188504 8.68050379 15.992462 13 24 C13.46325684 24.85754883 13.92651367 25.71509766 14.40380859 26.59863281 C33.17354413 61.44117781 33.17354413 61.44117781 39.0625 79.28125 C40.11616539 82.33687964 41.47941481 85.07318074 42.98046875 87.92578125 C45.36929419 92.78580541 47.14348528 97.91875143 49 103 C49.2671582 103.72767578 49.53431641 104.45535156 49.80957031 105.20507812 C56.67177244 124.01143322 62.14707367 142.81885277 65.56640625 162.55566406 C65.9740471 164.85369347 66.41670253 167.14129674 66.875 169.4296875 C68.75177503 178.96004802 69.68396254 188.32541066 69.91503906 198.03417969 C69.97632556 200.17357159 70.0620312 202.31231279 70.16308594 204.45019531 C71.40057514 231.26246128 68.05082787 257.55423988 54 281 C53.39800781 282.15242188 52.79601562 283.30484375 52.17578125 284.4921875 C33.40099167 319.83759849 -0.69869296 341.01949663 -37 355 C-53.85188441 361.63862113 -68.90070664 369.555601 -83 381 C-80.25847628 392.90070522 -76.41850066 403.44511428 -70.8671875 414.3203125 C-66.20845498 423.45690335 -61.86434766 432.59210757 -58.82421875 442.4140625 C-58.06516749 444.99309353 -58.06516749 444.99309353 -56.91796875 447.2890625 C-54.40059707 454.72334312 -54.59384936 465.86263577 -57.5625 473.125 C-58.68359375 475.1171875 -58.68359375 475.1171875 -60 477 C-60.48597656 477.70382812 -60.97195312 478.40765625 -61.47265625 479.1328125 C-66.37122417 485.40946453 -72.54880346 488.51626782 -80 491 C-83.05796942 491.25168473 -86.12023211 491.23128288 -89.1875 491.25 C-90.4259668 491.2809375 -90.4259668 491.2809375 -91.68945312 491.3125 C-100.77085115 491.36975074 -107.18712047 488.79083521 -113.82421875 482.56640625 C-121.55493012 473.44777543 -125.74122313 461.05362888 -126.75390625 449.2734375 C-127.01714143 446.8416458 -127.48348272 444.51530623 -128 442.125 C-130.31191956 430.89793859 -130.20167969 419.53578322 -130.1875 408.125 C-130.18722809 407.30463257 -130.18695618 406.48426514 -130.18667603 405.63903809 C-130.11120205 356.11120205 -130.11120205 356.11120205 -124 350 C-123.60228673 347.73303437 -123.23314682 345.46105226 -122.875 343.1875 C-118.32562257 317.40280277 -105.92298958 294.87345114 -88 276 C-87.51853516 275.48066895 -87.03707031 274.96133789 -86.54101562 274.42626953 C-77.00020777 264.17618581 -66.40958554 256.06566359 -55 248 C-41.53706353 238.42651517 -31.27011892 228.25882572 -23 214 C-22.51917969 213.19304687 -22.03835937 212.38609375 -21.54296875 211.5546875 C-13.14162792 196.24557755 -10.16757925 177.95177027 -7 161 C-6.75121094 159.72511719 -6.50242188 158.45023438 -6.24609375 157.13671875 C-4.42625374 146.51038022 -4.81029276 135.74326704 -5 125 C-9.55571962 123.04197667 -12.18496323 122.19436121 -17 124 C-21.43745173 130.02662177 -22.777595 137.69403613 -24.33618164 144.87475586 C-25.98953124 152.37185524 -28.24657597 159.65832103 -30.53857422 166.98144531 C-32.19679733 172.29182852 -33.71215778 177.58723742 -35 183 C-35.66 183 -36.32 183 -37 183 C-37.3403125 184.36125 -37.3403125 184.36125 -37.6875 185.75 C-39.2483487 189.61495869 -40.37896089 190.95332572 -44 193 C-46.81592803 193.60992773 -49.18787373 193.64066586 -52 193 C-55 191 -55 191 -57 188 C-57.57975099 181.19555416 -56.0484306 175.28376261 -54.25 168.75 C-53.97414062 167.72076416 -53.69828125 166.69152832 -53.4140625 165.63110352 C-51.8214534 159.76254366 -50.07527648 153.99004108 -48.0546875 148.25390625 C-46.26507092 142.7326077 -44.8463606 137.10662625 -43.36474609 131.49609375 C-41.92822463 126.13938798 -40.31978855 120.9143713 -38.43823242 115.69799805 C-34.24734408 104.09513868 -34.24734408 104.09513868 -35 92 C-37.72865686 89.90033701 -39.61382732 89.07240738 -43 88.4375 C-46.53352023 89.10003504 -47.82529257 90.37730693 -49.91796875 93.25390625 C-53.57319868 99.15241808 -55.44843041 106.01896715 -57.75 112.51953125 C-60.19890983 119.33821456 -62.98818604 125.98157878 -65.875 132.625 C-70.05962325 142.34685199 -73.83719325 152.20981562 -77 162.3125 C-79.50428103 169.93964636 -83.14702988 179.37822946 -90 184 C-93.15925648 184.6761718 -95.84443393 184.70058277 -99 184 C-101.96205687 181.9048866 -102.75677923 180.32835961 -103.40625 176.78125 C-103.74903306 171.09105113 -102.60699525 166.00508669 -100.87890625 160.62109375 C-100.6590506 159.92827301 -100.43919495 159.23545227 -100.212677 158.52163696 C-97.69761319 150.79222771 -94.57456858 143.34066001 -91.375 135.875 C-90.79623704 134.50547776 -90.21811045 133.13568642 -89.640625 131.765625 C-85.48848625 121.96217425 -85.48848625 121.96217425 -83.33984375 117.72998047 C-81.98611606 114.97171097 -81.59357341 113.28790415 -81.625 110.25 C-81.61726562 109.49203125 -81.60953125 108.7340625 -81.6015625 107.953125 C-81.84368677 105.59548702 -81.84368677 105.59548702 -85 104 C-89.07046615 103.86431779 -91.63504428 103.7875158 -94.73754883 106.54345703 C-98.88933226 111.46540332 -102.54169918 116.53040603 -105.9375 122 C-106.45256104 122.82306641 -106.96762207 123.64613281 -107.49829102 124.49414062 C-112.18532674 132.0963999 -116.21582891 139.91764863 -120 148 C-120.45761719 148.94875 -120.91523437 149.8975 -121.38671875 150.875 C-125.08838937 158.72207463 -128.09437447 166.83170884 -131 175 C-131.37253906 176.03640625 -131.74507813 177.0728125 -132.12890625 178.140625 C-143.04330106 210.84100789 -142.85365061 248.29917195 -129 280 C-127.6528986 282.67014742 -126.28711958 285.30076965 -124.78515625 287.88671875 C-123.01122951 292.66131758 -125.87230778 297.30968727 -127.6875 301.75 C-132.02804284 312.81254018 -134.41933048 324.42893301 -137 336 C-137.20302734 336.9089502 -137.40605469 337.81790039 -137.61523438 338.75439453 C-138.07876962 340.83583044 -138.53971104 342.9178438 -139 345 C-167.71133392 334.64509268 -190.61703486 304.4587978 -203.10839844 277.93847656 C-218.34715084 244.8071255 -216.41551778 211.29422745 -204.07617188 177.7734375 C-201.54222088 171.24311008 -198.44053935 165.09313157 -195 159 C-194.65888184 158.38398926 -194.31776367 157.76797852 -193.96630859 157.13330078 C-188.18199259 146.76356055 -181.34160721 137.31582091 -174 128 C-173.20722656 126.98035156 -172.41445312 125.96070313 -171.59765625 124.91015625 C-165.32833127 117.17765007 -158.34032826 110.16114112 -151.3125 103.125 C-150.81495209 102.62636444 -150.31740417 102.12772888 -149.80477905 101.61398315 C-140.6560333 92.46749845 -131.05267524 84.13306891 -121 76 C-120.42830078 75.53400391 -119.85660156 75.06800781 -119.26757812 74.58789062 C-110.99472448 67.84671709 -102.58868419 61.40650852 -93.84082031 55.29492188 C-91.92229232 53.94533667 -90.01883465 52.57637985 -88.1171875 51.203125 C-65.10877977 34.65156753 -40.73429566 20.14943062 -15.8125 6.6875 C-15.19260193 6.35050079 -14.57270386 6.01350159 -13.934021 5.66629028 C-12.17460094 4.71199927 -10.40967477 3.76788108 -8.64453125 2.82421875 C-7.62721924 2.27854248 -6.60990723 1.73286621 -5.56176758 1.1706543 C-3 0 -3 0 0 0 Z " fill="#6AB61E" transform="translate(223,15)"/>
<path d="M0 0 C1.30517578 1.01126953 1.30517578 1.01126953 2.63671875 2.04296875 C5.55091758 4.4562144 7.65017204 7.04593057 10 10 C10.03738281 9.11957031 10.07476563 8.23914063 10.11328125 7.33203125 C10.21189453 5.58986328 10.21189453 5.58986328 10.3125 3.8125 C10.39951172 2.08966797 10.39951172 2.08966797 10.48828125 0.33203125 C11.22832507 -4.48672735 12.93397358 -7.0639768 16.5625 -10.25 C21.0073706 -13.44118915 24.62137293 -13.64398402 30 -13 C34.59353422 -10.74656812 38.06615352 -7.79501104 40 -3 C40.60695743 1.40976971 40.56682901 5.79229162 40.54931641 10.23803711 C40.55801875 11.58716456 40.56838776 12.93628213 40.58029175 14.28538513 C40.6070075 17.9383879 40.60823661 21.59097604 40.60316515 25.24405742 C40.60102143 28.29820077 40.61080329 31.35226095 40.62037599 34.40638644 C40.64254379 41.61367999 40.64345377 48.82076505 40.63134766 56.02807617 C40.61926626 63.45374045 40.64389833 70.87864698 40.68648779 78.30418199 C40.72175698 84.68912191 40.73371686 91.07382103 40.72721231 97.45885473 C40.72359225 101.26819417 40.72880069 105.07699294 40.75664139 108.88624382 C40.78185156 112.46943032 40.77786383 116.05143827 40.75181961 119.63460732 C40.74485726 121.56911944 40.76740657 123.50366799 40.79095459 125.43804932 C40.71179601 131.99539751 40.31171989 136.09905763 35.51215172 140.79831791 C31.39637663 144.06905666 27.34268302 144.45364078 22.21484375 144.30859375 C18.60010359 143.80495271 16.64792011 142.45878296 14 140 C10.62357027 134.29499805 10.34267736 128.53450273 10 122 C9.26910156 122.81791016 9.26910156 122.81791016 8.5234375 123.65234375 C-1.18805041 133.98183543 -12.49254057 140.72503279 -26 145 C-26.7425 145.24492187 -27.485 145.48984375 -28.25 145.7421875 C-47.57562372 151.08601527 -69.19199397 145.04486481 -86.125 135.75 C-105.05455081 124.23945283 -115.47555771 106.17550082 -121.23828125 85.19140625 C-125.62000167 66.83312119 -123.48186082 45.86706227 -115 29 C-114.55785156 28.07960938 -114.11570312 27.15921875 -113.66015625 26.2109375 C-104.03722925 7.28495919 -87.58086423 -6.42149316 -67.47265625 -13.03515625 C-43.66213487 -19.65067794 -19.32997137 -15.58169166 0 0 Z " fill="#20331F" transform="translate(637,232)"/>
<path d="M0 0 C1.22702637 0.00612305 2.45405273 0.01224609 3.71826172 0.01855469 C13.14738537 0.18050291 21.34969106 1.3038949 30.25 4.4375 C31.16007813 4.72625 32.07015625 5.015 33.0078125 5.3125 C51.51377974 11.80989289 66.05003555 27.1960988 75 44.1875 C84.74545795 65.01870032 86.40891608 85.72051035 79.1484375 107.78515625 C74.38248409 120.92996323 68.03090321 130.64252354 58.25 140.4375 C57.59128906 141.1078125 56.93257812 141.778125 56.25390625 142.46875 C37.92457762 159.81263085 14.59987086 162.08613262 -9.45849609 161.56054688 C-29.49028462 160.81169497 -47.82016932 150.34360506 -61.5546875 136.04296875 C-76.21919031 118.63865669 -83.37335946 97.06377216 -81.75 74.4375 C-80.0087667 55.19899545 -72.40464259 38.06793223 -58.75 24.4375 C-58.12609375 23.74269531 -57.5021875 23.04789063 -56.859375 22.33203125 C-42.41439613 6.64284201 -20.79068446 -0.17728269 0 0 Z " fill="#20341F" transform="translate(958.75,216.5625)"/>
<path d="M0 0 C4.63740795 1.5897331 8.60050424 3.57987623 11 8 C11.70304576 9.57348338 12.39945155 11.1505083 13.05078125 12.74609375 C14.75306369 16.78813888 16.64760602 20.74382125 18.5 24.71875 C19.48378015 26.87076907 20.4407697 29.03528164 21.36767578 31.21240234 C23.04467142 35.13691524 24.82438162 39.01013206 26.6171875 42.8828125 C27.31399174 44.395746 28.01059997 45.90876978 28.70703125 47.421875 C29.78666008 49.76554283 30.86743027 52.10865213 31.95166016 54.45019531 C35.89528522 62.97217613 39.65682537 71.47120766 42.94482422 80.27001953 C44.29964298 83.77524474 45.89090179 87.04141394 47.625 90.375 C49.94332335 94.85429444 52.0410107 99.35209662 54 104 C55.06931297 106.33174601 56.14544433 108.65990321 57.23046875 110.984375 C58 113 58 113 58 116 C58.66 116 59.32 116 60 116 C60.10618652 114.9999292 60.21237305 113.9998584 60.32177734 112.96948242 C60.90801418 108.90486032 62.27469469 105.26208676 63.8515625 101.48828125 C64.14221085 100.77500168 64.43285919 100.06172211 64.73231506 99.326828 C65.68881045 96.98546425 66.65671934 94.64901172 67.625 92.3125 C68.30242947 90.66170044 68.97925876 89.01065447 69.65551758 87.359375 C71.75806632 82.23447615 73.87719397 77.11653539 76 72 C76.33138977 71.20059998 76.66277954 70.40119995 77.00421143 69.57757568 C79.84643156 62.72260136 82.6894697 55.86801628 85.56713867 49.02783203 C88.27721351 42.58044398 90.97008561 36.13175031 93.51689148 29.61776733 C94.56644182 26.93345325 95.63077213 24.2550946 96.69522095 21.57666016 C97.41086546 19.75528706 98.10276456 17.92463875 98.79370117 16.09375 C101.50465035 9.28870412 104.41034184 3.69528176 111 0 C116.11882542 -1.01895779 119.69205685 -0.65397158 124.375 1.6875 C131.20425249 7.70374624 131.20425249 7.70374624 131.5625 13 C131.18503316 21.10205619 127.23419762 28.60596012 123.6171875 35.71484375 C120.91007521 41.08021439 118.58881544 46.56570617 116.3125 52.125 C115.42717325 54.26826631 114.54175416 56.41149448 113.65625 58.5546875 C113.21152344 59.63459961 112.76679687 60.71451172 112.30859375 61.82714844 C110.32343365 66.64042094 108.31762103 71.44501748 106.3125 76.25 C105.49339961 78.21610835 104.67439377 80.1822561 103.85546875 82.1484375 C101.96548675 86.6846693 100.07374331 91.22016269 98.18101501 95.75524902 C96.83099338 98.99026801 95.4815566 102.22553083 94.13217163 105.46081543 C93.46855479 107.05150116 92.80468165 108.64207999 92.14053345 110.23254395 C89.00072925 117.75184446 85.86395662 125.26979354 82.85888672 132.84423828 C81.16252943 137.10200828 79.39762348 141.33176793 77.64453125 145.56640625 C76.09946602 149.30672252 74.5781023 153.0546431 73.0859375 156.81640625 C70.85794 162.39712182 68.50844162 167.92164052 66.125 173.4375 C65.71636719 174.39720703 65.30773438 175.35691406 64.88671875 176.34570312 C60.16208584 187.27417645 54.87016287 197.02262791 47 206 C46.38382813 206.7115625 45.76765625 207.423125 45.1328125 208.15625 C36.07021976 217.93332101 22.66824834 224.79279265 9.43359375 226.4453125 C3.01461711 226.6643902 -1.21219317 226.40982208 -6 222 C-6.8971875 221.2265625 -6.8971875 221.2265625 -7.8125 220.4375 C-10.58473915 217.08163155 -10.5283511 212.80202312 -10.44921875 208.64453125 C-9.7715305 204.65501 -8.18775413 202.38404182 -5.3671875 199.53515625 C-1.6398871 197.11794659 2.10014938 197.03517803 6.44921875 196.59375 C14.46754442 195.25295187 22.68081136 191.2408224 27.9375 184.9375 C31.94999388 178.99456197 35.00371273 172.49668923 38 166 C38.52335937 164.89269531 39.04671875 163.78539062 39.5859375 162.64453125 C42.78583411 155.58203107 42.78583411 155.58203107 42 148 C41.07341535 146.37847686 40.14090093 144.75972346 39.1640625 143.16796875 C37.70249111 140.44591465 36.68896758 137.65016971 35.625 134.75 C33.63373418 129.40115366 31.22230073 124.57650947 28.41015625 119.62109375 C26.62796947 116.30849727 25.27130323 112.91161133 23.9296875 109.40234375 C22.72498493 106.2893518 21.36979949 103.25623894 19.99609375 100.21484375 C19.32986313 98.73346038 18.6762533 97.24633866 18.03515625 95.75390625 C16.37011994 91.8955691 14.59470945 88.20742256 12.5 84.5625 C10.81666535 81.59759336 9.40972443 78.68209093 8.1875 75.5 C4.09605863 64.88525654 -1.1142678 54.70218595 -6.25 44.5625 C-8.79468797 39.53455176 -11.1566073 34.50436377 -13.12109375 29.21875 C-13.96937979 26.96450819 -13.96937979 26.96450819 -15.16015625 24.78125 C-17.869198 19.56519673 -18.59339249 15.39123769 -17.8203125 9.52734375 C-16.45851067 5.33169715 -13.68288696 3.2284443 -10 1 C-6.76852658 -0.61573671 -3.50326461 -0.44787796 0 0 Z " fill="#21341F" transform="translate(1284,219)"/>
<path d="M0 0 C1.28165039 0.00902344 2.56330078 0.01804688 3.88378906 0.02734375 C21.20652071 0.34462604 39.6513681 5.39346337 52.6875 17.4375 C54.68515403 21.43280807 54.33693255 26.10596361 53.6875 30.4375 C51.71472292 33.92779792 49.29060735 36.63594633 45.6875 38.4375 C37.99896528 39.429569 34.01986037 37.26026796 27.55078125 33.19140625 C18.9744783 27.93798193 10.20182394 27.24313665 0.375 27.1875 C-0.52412109 27.166875 -1.42324219 27.14625 -2.34960938 27.125 C-11.08022597 27.07449752 -18.35313335 28.9694262 -25.3125 34.4375 C-28.82685489 38.43659349 -29.68967639 42.03969909 -29.58203125 47.3828125 C-29.11694924 50.92822026 -27.6620205 52.79428944 -25.3125 55.4375 C-19.78108142 59.68307752 -13.99139956 61.74866331 -7.3125 63.5 C-6.39476807 63.75185059 -5.47703613 64.00370117 -4.53149414 64.26318359 C1.0418876 65.77945346 6.64011633 67.18859475 12.25 68.5625 C29.02364617 72.7093651 47.48303819 78.09327339 57.0625 93.5625 C57.97872663 95.16461696 58.85577025 96.78993342 59.6875 98.4375 C60.06003906 99.14777344 60.43257813 99.85804688 60.81640625 100.58984375 C63.92697589 110.75847725 63.23723314 123.78813514 58.625 133.3125 C57.38062733 135.39638956 56.07331913 137.4448725 54.6875 139.4375 C54.14738281 140.22253906 53.60726562 141.00757813 53.05078125 141.81640625 C48.64213784 147.44196334 42.86671804 150.98699648 36.6875 154.4375 C35.60855469 155.04078125 35.60855469 155.04078125 34.5078125 155.65625 C16.44245927 164.65484104 -9.72788833 164.29015181 -28.7578125 158.63671875 C-55.60536701 149.57935695 -55.60536701 149.57935695 -62.125 139.6875 C-63.55197659 135.78209037 -64.39714093 132.4823068 -63.3125 128.4375 C-60.93091519 124.85892074 -58.20583276 121.38416638 -54.3125 119.4375 C-47.72941815 118.84859811 -44.37681314 120.01758895 -39 123.6875 C-32.96043959 127.5511969 -27.21514109 130.37607777 -20.3125 132.4375 C-19.04599609 132.88222656 -19.04599609 132.88222656 -17.75390625 133.3359375 C-4.73983027 137.55149257 9.04832162 136.28950687 21.6875 131.4375 C27.04167115 128.58407945 30.75825063 125.34582621 32.6875 119.4375 C33.2818773 113.98904139 32.31278873 110.23544146 29.6875 105.4375 C18.81600795 95.43495492 0.17178413 92.24012506 -13.9609375 89.51953125 C-28.55547984 86.67992567 -43.92512034 81.57018967 -53.046875 69.05859375 C-59.54341885 58.92707893 -60.74336543 48.55601514 -58.8828125 36.69921875 C-55.7402596 24.53637513 -47.71158462 14.8362381 -37.046875 8.49609375 C-25.03613546 2.03347911 -13.6249961 -0.11482746 0 0 Z " fill="#20341F" transform="translate(424.3125,216.5625)"/>
<path d="M0 0 C0 0.99 0 1.98 0 3 C-1.546875 4.4453125 -1.546875 4.4453125 -3.75 6.125 C-22.86249149 22.59714729 -36.88741709 52.01646773 -38.7578125 77.06640625 C-40.48998567 107.92311151 -37.19919168 138.90417634 -22.6875 166.75 C-22.07923503 167.9393412 -21.47251684 169.12947449 -20.8671875 170.3203125 C-20.56006836 170.92262695 -20.25294922 171.52494141 -19.93652344 172.14550781 C-15.62044354 180.69215613 -11.66189187 189.24619549 -8.82421875 198.4140625 C-8.06516749 200.99309353 -8.06516749 200.99309353 -6.91796875 203.2890625 C-4.40059707 210.72334312 -4.59384936 221.86263577 -7.5625 229.125 C-8.68359375 231.1171875 -8.68359375 231.1171875 -10 233 C-10.48597656 233.70382812 -10.97195312 234.40765625 -11.47265625 235.1328125 C-16.37122417 241.40946453 -22.54880346 244.51626782 -30 247 C-33.05796942 247.25168473 -36.12023211 247.23128288 -39.1875 247.25 C-40.4259668 247.2809375 -40.4259668 247.2809375 -41.68945312 247.3125 C-50.77085115 247.36975074 -57.18712047 244.79083521 -63.82421875 238.56640625 C-71.55493012 229.44777543 -75.74122313 217.05362888 -76.75390625 205.2734375 C-77.01714143 202.8416458 -77.48348272 200.51530623 -78 198.125 C-80.31191956 186.89793859 -80.20167969 175.53578322 -80.1875 164.125 C-80.18722809 163.30463257 -80.18695618 162.48426514 -80.18667603 161.63903809 C-80.11120205 112.11120205 -80.11120205 112.11120205 -74 106 C-73.60228673 103.73303437 -73.23314682 101.46105226 -72.875 99.1875 C-68.32562257 73.40280277 -55.92298958 50.87345114 -38 32 C-37.51853516 31.48066895 -37.03707031 30.96133789 -36.54101562 30.42626953 C-27.56032613 20.77794409 -17.71684052 13.01524977 -6.96826172 5.41699219 C-4.57577163 3.69458925 -2.2737981 1.87576906 0 0 Z " fill="#F57908" transform="translate(173,259)"/>
<path d="M0 0 C3.98993076 3.98993076 2.74665639 12.3441193 2.89892578 17.79248047 C2.96957127 20.03436566 3.06076237 22.27565546 3.16748047 24.51611328 C4.40269296 51.30237839 1.0355965 77.57965555 -13 101 C-13.90298828 102.72863281 -13.90298828 102.72863281 -14.82421875 104.4921875 C-33.59900833 139.83759849 -67.69869296 161.01949663 -104 175 C-118.796362 180.82886988 -132.13185577 187.67322516 -145 197 C-146.98855124 198.35162022 -148.9920137 199.67723158 -151 201 C-153.54523787 194.05844217 -155.07942793 187.3355059 -156 180 C-156.13277344 179.19949219 -156.26554688 178.39898437 -156.40234375 177.57421875 C-157.58573247 165.22130144 -147.37247203 152.00614481 -140 143 C-124.78851727 124.82771081 -105.02823772 112.24180595 -84.60668945 100.63208008 C-68.68647232 91.57784734 -53.97509837 81.83830829 -40 70 C-39.42121094 69.54367187 -38.84242188 69.08734375 -38.24609375 68.6171875 C-23.91764569 57.31903786 -13.5338506 39.47528404 -7.796875 22.33984375 C-7 20 -7 20 -5.4375 16.5625 C-3.7096022 12.28031849 -2.68529643 7.96961785 -1.6484375 3.4765625 C-1 1 -1 1 0 0 Z " fill="#428B10" transform="translate(290,195)"/>
<path d="M0 0 C1.03060547 0.71736328 1.03060547 0.71736328 2.08203125 1.44921875 C11.88851911 9.12806624 19.00382243 21.7951828 21 34 C22.51043545 51.91060589 19.19830413 67.37012274 7.625 81.5 C-2.65989107 92.1546849 -16.66884345 97.98810176 -31.4375 98.3125 C-46.24191615 98.15764209 -58.13329422 92.76155078 -68.8125 82.6875 C-79.19452168 71.71221994 -84.40454781 57.59661575 -84.1484375 42.51171875 C-83.21681399 26.74766829 -76.77946229 12.84954401 -65.32421875 1.91796875 C-45.86072276 -14.14350442 -20.39555369 -14.23187193 0 0 Z " fill="#FBFCFC" transform="translate(991,254)"/>
<path d="M0 0 C6.5486249 3.83032777 9.34354372 10.65578622 12.2109375 17.39453125 C12.56265015 18.20224472 12.91436279 19.00995819 13.2767334 19.84214783 C14.42124581 22.47488086 15.55438269 25.11234513 16.6875 27.75 C17.48759445 29.59639701 18.28854946 31.44242135 19.09033203 33.28808594 C20.31379597 36.10507786 21.53653243 38.92236541 22.756073 41.74105835 C25.27761075 47.5681286 27.82555379 53.3824901 30.40625 59.18359375 C30.72557495 59.90171234 31.0448999 60.61983093 31.37390137 61.35971069 C32.00339252 62.77517815 32.63290868 64.19063448 33.26245117 65.6060791 C38.95388019 78.41216991 44.44316088 91.28872593 49.72216797 104.27050781 C50.18252441 105.3994043 50.64288086 106.52830078 51.1171875 107.69140625 C51.51921387 108.68470947 51.92124023 109.6780127 52.33544922 110.70141602 C53.11929038 112.86590085 53.11929038 112.86590085 54.3125 113.9375 C54.63822998 113.15552246 54.96395996 112.37354492 55.29956055 111.56787109 C63.16191521 92.71083696 71.14692914 73.91285739 79.32775879 55.19140625 C80.41022644 52.71382069 81.4917279 50.23581437 82.57324219 47.7578125 C84.60084594 43.11345171 86.63152481 38.47044483 88.66421509 33.82830811 C89.46395074 32.00146393 90.26309547 30.17436094 91.06161499 28.34698486 C92.18610599 25.77466548 93.31338931 23.20358729 94.44140625 20.6328125 C94.77320892 19.87254761 95.1050116 19.11228271 95.4468689 18.32897949 C97.03934622 14.70741111 98.6745074 11.1094459 100.39428711 7.54638672 C100.70087753 6.91062714 101.00746796 6.27486755 101.323349 5.61984253 C103.47297079 1.96377773 106.39695751 0.24268083 110.3125 -1.0625 C114.94772786 -1.60106933 118.39156346 -1.51428019 122.625 0.5625 C126.69452557 4.15882492 129.05469486 6.90037905 129.75 12.39453125 C129.59924296 18.47322099 126.58697205 23.53187865 123.9375 28.875 C122.72643353 31.38493173 121.52901475 33.90129586 120.33203125 36.41796875 C120.0109288 37.09010406 119.68982635 37.76223938 119.35899353 38.45474243 C115.24480855 47.1086895 111.44995252 55.90303924 107.625 64.6875 C100.72639298 80.49587657 93.72078014 96.25229109 86.59790039 111.9609375 C83.30546206 119.22986215 80.04092686 126.5024716 76.94921875 133.859375 C76.20466431 135.61507812 76.20466431 135.61507812 75.44506836 137.40625 C74.55904103 139.50905899 73.68738553 141.61801653 72.83422852 143.734375 C70.49472379 149.26938472 68.77260229 152.25171995 63.3125 154.9375 C57.12518931 156.9999369 49.78624594 156.83316663 43.6875 154.625 C39.84263494 151.89312219 37.93797485 149.55972134 36.0625 145.21484375 C35.62897217 144.22339355 35.19544434 143.23194336 34.7487793 142.21044922 C34.27480713 141.10975098 33.80083496 140.00905273 33.3125 138.875 C32.23725954 136.41725918 31.16050036 133.96022792 30.08203125 131.50390625 C29.64380791 130.50327148 29.64380791 130.50327148 29.19673157 129.48242188 C25.20849844 120.39108226 21.09821459 111.354633 17 102.3125 C16.17549283 100.49171927 15.35103005 98.67091844 14.52661133 96.85009766 C10.14077402 87.16605962 5.74728796 77.48550615 1.34521484 67.80883789 C0.1270513 65.13069481 -1.0886648 62.45146271 -2.30224609 59.77124023 C-5.07365938 53.6548726 -7.86144553 47.54781003 -10.70875549 41.46632385 C-12.03877626 38.62118446 -13.35736987 35.77082488 -14.6746521 32.91976929 C-15.29901848 31.57638209 -15.92876736 30.23548094 -16.56436157 28.89736938 C-22.70165308 15.97061035 -22.70165308 15.97061035 -21.6875 8.9375 C-16.95284886 -0.53180227 -9.69511051 -2.79350642 0 0 Z " fill="#20341F" transform="translate(731.6875,220.0625)"/>
<path d="M0 0 C10.34857496 8.62381247 17.53582419 20.67356672 19.3671875 34.06640625 C20.27074066 51.33817244 17.72373407 66.72843257 6.1796875 80.37890625 C1.45726775 85.29875158 -3.58927327 88.92809456 -9.6328125 92.06640625 C-10.88191406 92.71802734 -10.88191406 92.71802734 -12.15625 93.3828125 C-23.55410167 98.17926914 -40.88980846 98.53413062 -52.4453125 94.06640625 C-55.10546875 92.671875 -55.10546875 92.671875 -57.6328125 91.06640625 C-58.58027344 90.48503906 -59.52773438 89.90367187 -60.50390625 89.3046875 C-73.02419299 80.92951604 -79.99721031 69.63966962 -83.4453125 55.12890625 C-86.67219651 38.22003405 -83.20989714 24.08719467 -74.07421875 9.59375 C-67.00628768 -0.28779391 -55.42371862 -8.30333323 -43.375 -10.6171875 C-27.13186393 -12.49139551 -13.33604908 -9.79427937 0 0 Z " fill="#FCFCFC" transform="translate(628.6328125,254.93359375)"/>
<path d="M0 0 C2.46573522 1.98928837 3.835007 3.50251051 5.625 6.1875 C5.82780658 9.13223934 5.91188769 11.98332914 5.90588379 14.92913818 C5.91479716 16.28539759 5.91479716 16.28539759 5.92389059 17.66905618 C5.94129125 20.71137402 5.94428327 23.75353472 5.94726562 26.79589844 C5.95652014 28.97215106 5.96656921 31.14840043 5.97735596 33.324646 C6.00362663 39.24623585 6.01649835 45.16778033 6.02537727 51.08941936 C6.03123532 54.78760835 6.0394443 58.48578487 6.04838562 62.18396759 C6.07574199 73.75062623 6.09507192 85.31725647 6.1027894 96.88394523 C6.10367359 98.2019601 6.10455777 99.51997497 6.10546875 100.87792969 C6.10613304 101.86850539 6.10613304 101.86850539 6.10681075 102.87909272 C6.11519436 114.24029667 6.15551648 125.6011696 6.20479059 136.96226478 C6.24800278 147.28337691 6.26819682 157.60437384 6.27087164 167.92557549 C6.27296935 174.09240702 6.28481809 180.25885409 6.32051086 186.42559052 C6.35343561 192.22710036 6.35780192 198.02793602 6.34023285 203.82950592 C6.33869006 205.95838728 6.34740477 208.08730461 6.36714935 210.21609497 C6.39253908 213.12417692 6.38086819 216.02986207 6.35998535 218.93792725 C6.37609816 219.77928152 6.39221097 220.62063579 6.40881205 221.48748565 C6.3174623 226.93117947 5.00601022 229.79434429 1.30228567 233.78611779 C-2.68709984 237.11927324 -6.07221357 237.56165956 -11.125 237.4453125 C-15.12576564 236.98689144 -18.01101485 235.25920262 -21.125 232.8125 C-24.80512884 228.0283325 -24.66382604 223.07141315 -24.64242554 217.31251526 C-24.64695665 216.41817856 -24.65148776 215.52384187 -24.65615618 214.60240406 C-24.66881728 211.60540762 -24.66717871 208.6085925 -24.66552734 205.61157227 C-24.67151145 203.46295945 -24.67831672 201.31434879 -24.68588257 199.16574097 C-24.70355994 193.32903199 -24.70823863 187.49238163 -24.70951414 181.65564847 C-24.71141271 176.78471345 -24.71876962 171.91379211 -24.72585833 167.04286236 C-24.74214585 155.55290054 -24.74702688 144.06297008 -24.74560547 132.57299805 C-24.74440335 120.71515994 -24.76551844 108.85750365 -24.7970928 96.99971157 C-24.82322885 86.82209781 -24.83397391 76.64454354 -24.83269465 66.46689647 C-24.83218431 60.38685303 -24.83790758 54.3069712 -24.85905075 48.22696114 C-24.8783885 42.51007069 -24.87858805 36.7934968 -24.86401749 31.07659531 C-24.86192288 28.97794445 -24.86666892 26.87927401 -24.8787384 24.78065681 C-24.89414415 21.91655332 -24.88491354 19.05354775 -24.86947632 16.18946838 C-24.88490701 14.94262334 -24.88490701 14.94262334 -24.90064943 13.67058951 C-24.83753678 8.37510532 -23.84463085 5.41359361 -20.375 1.1875 C-14.43321932 -4.19723874 -6.43510323 -4.72687583 0 0 Z " fill="#213520" transform="translate(1224.375,138.8125)"/>
<path d="M0 0 C0.7014917 0.00161133 1.4029834 0.00322266 2.12573242 0.00488281 C7.88156741 0.14133724 11.38783223 1.07523452 16.0625 4.375 C19.84708495 8.40375172 20.52911135 12.65079 20.4765625 18.01953125 C19.75384971 22.13081253 17.28942986 24.84805493 14.0625 27.375 C9.62398257 29.7698835 5.40905038 29.61040257 0.5 29.6875 C-11.45913536 30.13878813 -21.27360354 33.89473141 -29.9375 42.375 C-41.56581764 55.06043743 -42.6700187 71.15425871 -42.5390625 87.4453125 C-42.54457921 89.22412075 -42.5527186 91.00292257 -42.56332397 92.78170776 C-42.58596644 97.41209738 -42.58207739 102.04201016 -42.56951904 106.67242432 C-42.55104212 114.11573153 -42.56123133 121.55876859 -42.59537888 129.00201035 C-42.60145447 131.58685282 -42.58827232 134.1710948 -42.57339478 136.75588989 C-42.57634248 138.3413305 -42.579997 139.92677 -42.58447266 141.51220703 C-42.57518234 142.22290848 -42.56589203 142.93360992 -42.55632019 143.66584778 C-42.60544533 149.83079644 -44.44024156 153.65315279 -48.4375 158.25 C-52.11105029 161.10413681 -55.88144295 160.95834034 -60.3828125 160.7265625 C-64.9670752 160.09570066 -66.97276646 158.4246096 -70.03504944 155.09291077 C-73.30526066 150.02490089 -72.48337389 143.81648872 -72.43920898 138.01342773 C-72.44299531 136.65120893 -72.44849794 135.28899398 -72.45558167 133.92678833 C-72.46951165 130.23874437 -72.45838478 126.55116821 -72.44187045 122.86315036 C-72.42799291 118.99910053 -72.434483 115.13507712 -72.43800354 111.27101135 C-72.44070321 104.78386926 -72.42724999 98.29691245 -72.40405273 91.80981445 C-72.37743322 84.31387662 -72.37570031 76.81824831 -72.3874411 69.32227939 C-72.39822575 62.10449739 -72.39202717 54.88682716 -72.37788582 47.66905403 C-72.37213308 44.60017308 -72.37220304 41.53137412 -72.37695122 38.46249199 C-72.38172889 34.8483867 -72.37158701 31.23461973 -72.34999657 27.62057877 C-72.34179212 25.6642595 -72.3482725 23.70789588 -72.35519409 21.75157166 C-72.34528946 20.58380188 -72.33538483 19.4160321 -72.32518005 18.21287537 C-72.32275016 17.20024344 -72.32032026 16.18761152 -72.31781673 15.14429379 C-71.86813217 11.86989492 -70.8862952 10.02731533 -68.9375 7.375 C-64.65684738 4.26942849 -61.4611955 2.6729847 -55.9921875 2.9921875 C-50.91469467 3.93818426 -47.08211879 5.82422615 -44 10 C-42.60476443 14.43192476 -42.20249908 18.7512229 -41.9375 23.375 C-41.53660156 22.80652344 -41.13570312 22.23804688 -40.72265625 21.65234375 C-31.00639744 8.45497635 -16.703747 -0.04002335 0 0 Z " fill="#20341F" transform="translate(1148.9375,215.625)"/>
<path d="M0 0 C0.66 0.33 1.32 0.66 2 1 C-2.86550631 6.71589136 -7.97392406 12.10074425 -13.3125 17.375 C-14.38467773 18.44041016 -14.38467773 18.44041016 -15.47851562 19.52734375 C-16.78960771 20.82978584 -18.10173269 22.13118969 -19.4152832 23.43115234 C-20.61353133 24.61740138 -21.80773632 25.80773632 -23 27 C-23.66 26.34 -24.32 25.68 -25 25 C-16.75 16.75 -8.5 8.5 0 0 Z " fill="#6EBD27" transform="translate(83,107)"/>
<path d="M0 0 C2.81901736 1.09416098 5.40449079 2.4537392 8 4 C7.34 4.66 6.68 5.32 6 6 C5.44054688 5.51660156 4.88109375 5.03320312 4.3046875 4.53515625 C0.42514175 1.95098425 -3.51305075 2.11534912 -8 3 C-11.76679736 5.37538854 -14.40130089 8.84338232 -16 13 C-16.9375 10.375 -16.9375 10.375 -17 7 C-12.31903112 1.40598499 -7.29431184 -0.97850525 0 0 Z " fill="#233625" transform="translate(1284,219)"/>
<path d="M0 0 C0.66 0.33 1.32 0.66 2 1 C2.05790353 4.29159316 2.09356261 7.58305603 2.125 10.875 C2.15013672 12.28072266 2.15013672 12.28072266 2.17578125 13.71484375 C2.18222656 14.61074219 2.18867187 15.50664062 2.1953125 16.4296875 C2.20578613 17.25710449 2.21625977 18.08452148 2.22705078 18.93701172 C2 21 2 21 0 23 C-1.62538055 19.7492389 -1.14277895 16.19264307 -1.125 12.625 C-1.12886719 11.85671875 -1.13273438 11.0884375 -1.13671875 10.296875 C-1.13542969 9.55179687 -1.13414062 8.80671875 -1.1328125 8.0390625 C-1.13168457 7.36053223 -1.13055664 6.68200195 -1.12939453 5.98291016 C-0.99266834 3.88764583 -0.56770955 2.01770852 0 0 Z " fill="#2E412D" transform="translate(515,287)"/>
<path d="M0 0 C0 0.66 0 1.32 0 2 C-3.3 2 -6.6 2 -10 2 C-10.66 3.32 -11.32 4.64 -12 6 C-13.4375 7.75 -13.4375 7.75 -15 9 C-15.99 9 -16.98 9 -18 9 C-14.71858914 0.14019068 -8.38371582 -0.74558737 0 0 Z " fill="#2E412F" transform="translate(1405,219)"/>
<path d="M0 0 C0.33 0.99 0.66 1.98 1 3 C0.01 4.485 0.01 4.485 -1 6 C-1.66 6 -2.32 6 -3 6 C-3.268125 6.598125 -3.53625 7.19625 -3.8125 7.8125 C-4.98493467 9.97224808 -6.19369282 11.35790256 -8 13 C-8.99 12.67 -9.98 12.34 -11 12 C-10.37351563 11.38511719 -9.74703125 10.77023438 -9.1015625 10.13671875 C-8.28429687 9.32847656 -7.46703125 8.52023438 -6.625 7.6875 C-5.40683594 6.48673828 -5.40683594 6.48673828 -4.1640625 5.26171875 C-1.87395158 2.99990063 -1.87395158 2.99990063 0 0 Z " fill="#6FC02C" transform="translate(193,240)"/>
<path d="M0 0 C0.33 0 0.66 0 1 0 C1 3.96 1 7.92 1 12 C-0.98 10.35 -2.96 8.7 -5 7 C-4.67 6.34 -4.34 5.68 -4 5 C-3.01 5 -2.02 5 -1 5 C-0.67 3.35 -0.34 1.7 0 0 Z " fill="#F0F1EF" transform="translate(647,231)"/>
<path d="M0 0 C0 3 0 3 -1.8984375 4.97265625 C-2.71570313 5.66230469 -3.53296875 6.35195313 -4.375 7.0625 C-5.18710938 7.75472656 -5.99921875 8.44695312 -6.8359375 9.16015625 C-7.55007812 9.76730469 -8.26421875 10.37445313 -9 11 C-9.66 11.66 -10.32 12.32 -11 13 C-11.66 12.67 -12.32 12.34 -13 12 C-11.68895551 8.06686654 -9.17504178 6.63242994 -5.9375 4.3125 C-5.08575195 3.68891602 -5.08575195 3.68891602 -4.21679688 3.05273438 C-2.81596827 2.02859918 -1.40859652 1.01342465 0 0 Z " fill="#EB7E25" transform="translate(173,259)"/>
<path d="M0 0 C0.99 0.66 1.98 1.32 3 2 C2.67 2.66 2.34 3.32 2 4 C1.39671875 3.89300781 0.7934375 3.78601563 0.171875 3.67578125 C-4.8808034 2.79093221 -4.8808034 2.79093221 -9.5625 4.4375 C-10.036875 4.953125 -10.51125 5.46875 -11 6 C-10.6875 4.125 -10.6875 4.125 -10 2 C-6.31282562 -0.45811625 -4.35654296 -0.31118164 0 0 Z " fill="#74BA2E" transform="translate(184,101)"/>
<path d="M0 0 C0.33 0 0.66 0 1 0 C1.47676838 2.70168747 1.42826678 4.38427638 -0.16015625 6.66796875 C-2.6896113 9.39149963 -4.1090643 10.883791 -7.875 11.375 C-8.57625 11.25125 -9.2775 11.1275 -10 11 C-9.2575 10.443125 -8.515 9.88625 -7.75 9.3125 C-4.52326049 6.59910541 -1.89487672 3.78975344 0 0 Z " fill="#314531" transform="translate(456,338)"/>
<path d="M0 0 C0.33 0.66 0.66 1.32 1 2 C2.65 2 4.3 2 6 2 C2.25 8.875 2.25 8.875 0 10 C0 6.7 0 3.4 0 0 Z " fill="#E7EAE7" transform="translate(1106,230)"/>
<path d="M0 0 C6.50313209 -0.46450943 10.4174808 0.67424388 16 4 C15.34 4.66 14.68 5.32 14 6 C13.17242188 5.27876953 13.17242188 5.27876953 12.328125 4.54296875 C9.63856507 2.76045839 7.94178582 2.52248591 4.75 2.3125 C3.85796875 2.24675781 2.9659375 2.18101562 2.046875 2.11328125 C1.37140625 2.07589844 0.6959375 2.03851563 0 2 C0 1.34 0 0.68 0 0 Z " fill="#2F412F" transform="translate(1276,219)"/>
<path d="M0 0 C1.21236328 0.01353516 1.21236328 0.01353516 2.44921875 0.02734375 C3.37154297 0.04474609 3.37154297 0.04474609 4.3125 0.0625 C4.3125 0.7225 4.3125 1.3825 4.3125 2.0625 C3.31669922 2.15337891 3.31669922 2.15337891 2.30078125 2.24609375 C-4.23658081 2.86113507 -4.23658081 2.86113507 -10.6875 4.0625 C-7.4284026 0.49301238 -4.73606476 -0.06863862 0 0 Z " fill="#364737" transform="translate(846.6875,218.9375)"/>
<path d="M0 0 C0.66 0.66 1.32 1.32 2 2 C1.31292969 2.12117188 0.62585938 2.24234375 -0.08203125 2.3671875 C-1.43361328 2.61855469 -1.43361328 2.61855469 -2.8125 2.875 C-3.70582031 3.03742188 -4.59914062 3.19984375 -5.51953125 3.3671875 C-8.22727846 3.91188449 -8.22727846 3.91188449 -11 6 C-11 5.01 -11 4.02 -11 3 C-7.37269752 0.11949509 -4.57839321 -0.50871036 0 0 Z " fill="#76BA30" transform="translate(138,116)"/>
<path d="M0 0 C0.66 0.99 1.32 1.98 2 3 C-1.625 9.875 -1.625 9.875 -5 11 C-3.77472971 6.94718288 -2.30119506 3.55639236 0 0 Z " fill="#415241" transform="translate(372,239)"/>
<path d="M0 0 C0.66 0.66 1.32 1.32 2 2 C0.74057614 3.19959375 -0.53295286 4.38439443 -1.8125 5.5625 C-2.87404297 6.55443359 -2.87404297 6.55443359 -3.95703125 7.56640625 C-4.63121094 8.03949219 -5.30539062 8.51257813 -6 9 C-6.99 8.67 -7.98 8.34 -9 8 C-6.03 5.36 -3.06 2.72 0 0 Z " fill="#293D29" transform="translate(1120,225)"/>
<path d="M0 0 C0.99 0 1.98 0 3 0 C1.515 5.445 1.515 5.445 0 11 C-0.66 10.34 -1.32 9.68 -2 9 C-1.7578125 6.8359375 -1.7578125 6.8359375 -1.125 4.375 C-0.92132813 3.55773437 -0.71765625 2.74046875 -0.5078125 1.8984375 C-0.34023437 1.27195313 -0.17265625 0.64546875 0 0 Z " fill="#6FC12B" transform="translate(146,167)"/>
<path d="M0 0 C1.37432457 3.81756824 0.67975039 7.07255329 0 11 C-0.66 11 -1.32 11 -2 11 C-2.33 11.66 -2.66 12.32 -3 13 C-2.45144652 8.428721 -1.58255197 4.32564205 0 0 Z " fill="#F49A43" transform="translate(105,340)"/>
<path d="M0 0 C0.99 0.33 1.98 0.66 3 1 C3.94921875 3.06640625 3.94921875 3.06640625 4.6875 5.5625 C4.93886719 6.38878906 5.19023438 7.21507812 5.44921875 8.06640625 C5.63097656 8.70449219 5.81273437 9.34257812 6 10 C5.01 9.67 4.02 9.34 3 9 C2.05078125 6.93359375 2.05078125 6.93359375 1.3125 4.4375 C1.06113281 3.61121094 0.80976562 2.78492188 0.55078125 1.93359375 C0.36902344 1.29550781 0.18726563 0.65742188 0 0 Z " fill="#334433" transform="translate(1316,279)"/>
<path d="M0 0 C0.66 0.99 1.32 1.98 2 3 C1.125 6.6875 1.125 6.6875 0 10 C-0.99 10 -1.98 10 -3 10 C-2.39009109 6.44219804 -1.4216319 3.3171411 0 0 Z " fill="#3A4C3A" transform="translate(1372,262)"/>
<path d="M0 0 C0.66 0.66 1.32 1.32 2 2 C-0.25 4.0625 -0.25 4.0625 -3 6 C-4.32 5.67 -5.64 5.34 -7 5 C-4.69 3.35 -2.38 1.7 0 0 Z " fill="#79C133" transform="translate(119,78)"/>
<path d="M0 0 C2 1 2 1 2 1 Z M-2 1 C-1.34 1.33 -0.68 1.66 0 2 C-1.125 3.9375 -1.125 3.9375 -3 6 C-6.1875 6.75 -6.1875 6.75 -9 7 C-6.83312509 4.72478134 -4.54379491 2.84205838 -2 1 Z " fill="#2E412E" transform="translate(630,339)"/>
<path d="M0 0 C2.475 0.495 2.475 0.495 5 1 C4.67 2.98 4.34 4.96 4 7 C3.34 7 2.68 7 2 7 C1.34 4.69 0.68 2.38 0 0 Z " fill="#E1E5E1" transform="translate(1340,328)"/>
<path d="M0 0 C0.66 0.99 1.32 1.98 2 3 C-0.29166667 9.64583333 -0.29166667 9.64583333 -3 11 C-2.01 7.37 -1.02 3.74 0 0 Z " fill="#CED3CF" transform="translate(1039,318)"/>
<path d="M0 0 C1.28485596 5.13942384 0.22194431 6.37835584 -2 11 C-2.66 10.01 -3.32 9.02 -4 8 C-2.68 5.36 -1.36 2.72 0 0 Z " fill="#283B29" transform="translate(526,253)"/>
<path d="M0 0 C-0.33 0.99 -0.66 1.98 -1 3 C-4.5625 4.6875 -4.5625 4.6875 -8 6 C-8 5.34 -8 4.68 -8 4 C-7.34 4 -6.68 4 -6 4 C-5.67 3.01 -5.34 2.02 -5 1 C-2 0 -2 0 0 0 Z " fill="#48931B" transform="translate(175,372)"/>
<path d="M0 0 C0.33 0 0.66 0 1 0 C1 2.31 1 4.62 1 7 C1.99 7.33 2.98 7.66 4 8 C3.67 9.32 3.34 10.64 3 12 C1.09598862 10.09598862 0.06479561 8.66574314 -0.19921875 5.953125 C-0.1886578 3.96766727 -0.09915043 1.9830086 0 0 Z " fill="#91CA59" transform="translate(166,195)"/>
<path d="M0 0 C0 0.66 0 1.32 0 2 C-1.98 2 -3.96 2 -6 2 C-6.33 2.99 -6.66 3.98 -7 5 C-7.66 5 -8.32 5 -9 5 C-6.81610567 0.16423399 -5.20641855 -0.13701101 0 0 Z " fill="#E0EECF" transform="translate(213,137)"/>
<path d="M0 0 C-0.33 0.99 -0.66 1.98 -1 3 C-3.64 3.33 -6.28 3.66 -9 4 C-3.7826087 0 -3.7826087 0 0 0 Z " fill="#86CA4A" transform="translate(223,15)"/>
<path d="M0 0 C0.66 0.33 1.32 0.66 2 1 C1.67 3.64 1.34 6.28 1 9 C0.34 8.34 -0.32 7.68 -1 7 C-0.625 3.375 -0.625 3.375 0 0 Z " fill="#71C12A" transform="translate(85,342)"/>
<path d="M0 0 C2 3.75 2 3.75 2 6 C1.01 6 0.02 6 -1 6 C-1.33 7.32 -1.66 8.64 -2 10 C-3 8 -3 8 -2.44140625 6.0546875 C-2.15136719 5.33539063 -1.86132812 4.61609375 -1.5625 3.875 C-1.27503906 3.15054687 -0.98757812 2.42609375 -0.69140625 1.6796875 C-0.46324219 1.12539063 -0.23507813 0.57109375 0 0 Z " fill="#F69844" transform="translate(109,329)"/>
<path d="M0 0 C0.33 0.66 0.66 1.32 1 2 C0.0625 4.625 0.0625 4.625 -1 7 C-2.32 6.67 -3.64 6.34 -5 6 C-3.35 4.02 -1.7 2.04 0 0 Z " fill="#F58423" transform="translate(131,295)"/>
<path d="M0 0 C0.33 0 0.66 0 1 0 C1 2.31 1 4.62 1 7 C-0.32 7.33 -1.64 7.66 -3 8 C-1.125 2.25 -1.125 2.25 0 0 Z " fill="#7AC33A" transform="translate(23,184)"/>
<path d="M0 0 C0.33 1.32 0.66 2.64 1 4 C-0.9375 6.25 -0.9375 6.25 -3 8 C-3.66 7.67 -4.32 7.34 -5 7 C-3.35 4.69 -1.7 2.38 0 0 Z " fill="#E0E4E0" transform="translate(1339,413)"/>
<path d="M0 0 C-0.33 0.66 -0.66 1.32 -1 2 C-3.4375 2.75 -3.4375 2.75 -6 3 C-6.66 2.34 -7.32 1.68 -8 1 C-4.93251126 -0.86240388 -3.40254489 -1.2151946 0 0 Z " fill="#509526" transform="translate(186,369)"/>
<path d="M0 0 C0.99 0 1.98 0 3 0 C4.10844919 3.32534757 3.84454356 5.62182575 3 9 C2.34 9 1.68 9 1 9 C1.020625 8.071875 1.04125 7.14375 1.0625 6.1875 C1.15769604 2.97713989 1.15769604 2.97713989 0 0 Z " fill="#2A3B29" transform="translate(1326,366)"/>
<path d="M0 0 C-0.33 0.99 -0.66 1.98 -1 3 C-3.31 2.67 -5.62 2.34 -8 2 C-4.91190305 0.23537317 -3.76687864 0 0 0 Z " fill="#394E3B" transform="translate(577,218)"/>
<path d="M0 0 C0.66 0.33 1.32 0.66 2 1 C1.34 3.97 0.68 6.94 0 10 C-0.33 10 -0.66 10 -1 10 C-1.02689216 8.52093108 -1.04634621 7.04172517 -1.0625 5.5625 C-1.07410156 4.73878906 -1.08570312 3.91507813 -1.09765625 3.06640625 C-1 1 -1 1 0 0 Z " fill="#6EBE2C" transform="translate(90,187)"/>
<path d="M0 0 C0.33 0 0.66 0 1 0 C1.33 2.31 1.66 4.62 2 7 C1.34 7 0.68 7 0 7 C0 8.65 0 10.3 0 12 C-0.33 12 -0.66 12 -1 12 C-1.14285714 3.42857143 -1.14285714 3.42857143 0 0 Z " fill="#8DC753" transform="translate(218,162)"/>
<path d="M0 0 C0.66 0.66 1.32 1.32 2 2 C1.34 3.65 0.68 5.3 0 7 C-0.99 6.34 -1.98 5.68 -3 5 C-2.01 3.35 -1.02 1.7 0 0 Z " fill="#77C537" transform="translate(170,108)"/>
</svg>
